<?xml version="1.0" encoding="UTF-8"?>
<svg version="1.1" viewBox="0 0 141 146" xmlns="http://www.w3.org/2000/svg">
	<path d="M13.3 126.4v-89c0-2.4.9-4.5 2.6-6.3s3.8-2.6 6.2-2.6h8.8v-6.7c0-3.1 1.1-5.7 3.2-7.9 2.2-2.2 4.7-3.3 7.8-3.3h4.4c3 0 5.6 1.1 7.8 3.3s3.2 4.8 3.2 7.9v6.7h26.4v-6.7c0-3.1 1.1-5.7 3.2-7.9 2.2-2.2 4.7-3.3 7.8-3.3h4.4c3 0 5.6 1.1 7.8 3.3s3.2 4.8 3.2 7.9v6.7h8.8c2.4 0 4.4.9 6.2 2.6 1.7 1.8 2.6 3.8 2.6 6.3v88.9c0 2.4-.9 4.5-2.6 6.3s-3.8 2.6-6.2 2.6H22.1c-2.4 0-4.4-.9-6.2-2.6-1.7-1.8-2.6-3.8-2.6-6.2zm8.8 0h96.8V55.2H22.1v71.2zm17.6-84.5c0 .6.2 1.2.6 1.6s.9.6 1.6.6h4.4c.6 0 1.2-.2 1.6-.6s.6-.9.6-1.6v-20c0-.6-.2-1.2-.6-1.6s-.9-.6-1.6-.6h-4.4c-.6 0-1.2.2-1.6.6s-.6 1-.6 1.6v20zm52.8 0c0 .6.2 1.2.6 1.6s.9.6 1.6.6h4.4c.6 0 1.2-.2 1.6-.6s.6-.9.6-1.6v-20c0-.6-.2-1.2-.6-1.6s-.9-.6-1.6-.6h-4.4c-.6 0-1.2.2-1.6.6s-.6 1-.6 1.6v20z"/>
	<text transform="scale(.98902 1.0111)" x="60" y="69.305733" font-family="Z003" font-size="19.485px" letter-spacing="0" stroke-width="1.218" text-anchor="middle" word-spacing="0" style="line-height:1.25" xml:space="preserve">		 
		<tspan x="60" y="69.305733">Pretty</tspan>		 
		<tspan x="60" y="95.274574">Google</tspan>		 
		<tspan x="60" y="121.24342">Calendar</tspan>	
	</text>
</svg>
